<?xml version="1.0" standalone="no"?>
<!DOCTYPE svg PUBLIC "-//W3C//DTD SVG 1.1//EN" "http://www.w3.org/Graphics/SVG/1.1/DTD/svg11.dtd">
<svg xmlns="http://www.w3.org/2000/svg"><metadata>This SVG WebFont was generated by YouWorkForThem.
</metadata><defs><font horiz-adv-x="1259" id="ywftsvg"><font-face ascent="1638" bbox="-287 -432 2515 1884" cap-height="1413" descent="-410" font-family="" font-stretch="normal" font-weight="400" panose-1="0 0 0 0 0 0 0 0 0 0" underline-position="0" underline-thickness="0" unicode-range="U+000A-F009" units-per-em="2048" x-height="942"/><missing-glyph d="M102 1434h875v-1434h-875v1434zM160 1393l379 -633l381 633h-760zM514 717l-369 614v-1231zM541 674l-379 -631h758zM565 717l371 -621v1239z" horiz-adv-x="1079"/><glyph d="M102 1434h875v-1434h-875v1434zM160 1393l379 -633l381 633h-760zM514 717l-369 614v-1231zM541 674l-379 -631h758zM565 717l371 -621v1239z" glyph-name=".notdef" horiz-adv-x="1079"/><glyph glyph-name="glyph1" horiz-adv-x="0"/><glyph glyph-name="glyph1" horiz-adv-x="0"/><glyph glyph-name="glyph2" horiz-adv-x="681"/><glyph glyph-name="uni000A" horiz-adv-x="0" unicode="&#x0a;"/><glyph glyph-name="space" horiz-adv-x="460" unicode=" "/><glyph d="M55 0l21 117h119l-23 -117h-117zM236 352h-119l178 1002h117z" glyph-name="exclam" horiz-adv-x="477" unicode="!"/><glyph d="M786 1413l-219 -412h-116l247 412h88zM494 1413l-222 -412h-116l250 412h88z" glyph-name="quotedbl" horiz-adv-x="761" unicode="&quot;"/><glyph d="M1040 862h-196l-111 -352h187l-15 -78h-196l-136 -434h-77l135 434h-275l-135 -434h-80l135 434h-196l14 78h207l111 352h-197l14 80h207l111 350h78l-109 -350h275l108 350h80l-111 -350h185zM655 510l111 352h-274l-111 -352h274z" glyph-name="numbersign" horiz-adv-x="1138" unicode="#"/><glyph d="M971 371q-16 -125 -107 -224q-76 -82 -184 -127q-78 -33 -162 -38l-29 -158h-116l26 162q-150 20 -239 116q-55 57 -78 136q-10 29 -12 59l116 45q6 -88 66 -152q63 -68 170 -86q37 -6 76 -6q20 0 41 2q59 6 112 29q78 31 131 88q59 66 71.5 149t-28.5 146 q-51 82 -188 143q-25 10 -111 43q-37 14 -59 25q-162 70 -205 178q-47 113 17 248q35 76 95 137.5t134 95.5q70 33 147 43l29 164h117l-29 -159q117 -10 199 -72q94 -68 112 -184l-116 -46q-2 27 -13 50q-20 49 -63 82q-59 43 -139 53q-59 6 -119 -4q-59 -12 -111 -43 q-86 -51 -133 -140.5t-16 -167.5q35 -82 176 -135q16 -6 50 -18t50 -19q6 -4 10 -4q197 -80 271 -194q59 -94 41 -217z" glyph-name="dollar" horiz-adv-x="1179" unicode="$"/><glyph d="M545 0h-88l897 1413h88zM625.5 1432q154.5 0 245 -110t62.5 -263.5t-156 -263t-282.5 -109.5t-244.5 108.5t-62.5 263t155.5 264.5t282.5 110zM511 776q118 0 215 83t117.5 200t-48 199.5t-185 82.5t-215 -82.5t-119 -199.5t48 -200t186.5 -83zM1404 725 q155 0 245 -108.5t62 -263t-156 -264t-282.5 -109.5t-244.5 109.5t-62.5 264t155.5 263t283 108.5zM1289 70q118 0 215.5 83t117.5 200.5t-48.5 200.5t-185 83t-215 -83t-119 -200.5t48 -200.5t186.5 -83z" glyph-name="percent" horiz-adv-x="1900" unicode="%"/><glyph d="M1153 86l-98 -84l-111 135q-209 -158 -442 -157q-199 0 -318 120q-57 57 -82 133q-27 80 -10 166q6 39 21 74q55 150 209 248q45 31 96 51l-23 29q-4 4 -6 8q-41 49 -57 115q-18 68 -5 142.5t54 141.5q39 66 98.5 117t130.5 78q74 29 147.5 29t137.5 -29q59 -27 101 -78 t59 -117q16 -68 4 -141q-27 -150 -150 -254q-119 -100 -266 -111l330 -397q113 123 139 273h119q-35 -199 -189 -357zM737.5 1315q-102.5 0 -188.5 -73t-105 -175q-12 -80 23 -140.5t94.5 -85t137 -12t141.5 67.5q84 70 100 170q18 102 -41 175t-161.5 73zM522 98 q184 0 352 121l-378 461q-68 -18 -123 -53q-109 -72 -150 -176q-8 -25 -14 -52q-20 -125 70.5 -213t242.5 -88z" glyph-name="ampersand" horiz-adv-x="1388" unicode="&amp;"/><glyph d="M518 1413l-221 -412h-117l250 412h88z" glyph-name="quotesingle" horiz-adv-x="520" unicode="'"/><glyph d="M379 -340l-107 -72q-111 188 -147 428q-39 250 9 520.5t173 518.5q121 242 301 430l80 -72q-164 -172 -276 -393q-115 -231 -160 -483t-10 -484q35 -221 137 -393z" glyph-name="parenleft" horiz-adv-x="659" unicode="("/><glyph d="M295 16q-123 -240 -301 -428l-80 72q164 172 274 393q117 231 162 483t10 484q-35 221 -137 393l107 72q111 -188 147 -430q39 -248 -9 -519.5t-173 -519.5z" glyph-name="parenright" horiz-adv-x="661" unicode=")"/><glyph d="M874 1157l-303 -117l138 -270l-74 -43l-131 260l-225 -260l-56 43l230 270l-260 117l43 72l251 -113l52 295h77l-51 -295l293 113z" glyph-name="asterisk" horiz-adv-x="905" unicode="*"/><glyph d="M1010 530l-21 -118h-411l-74 -412h-117l72 412h-412l21 118h411l74 412h117l-72 -412h412z" glyph-name="plus" horiz-adv-x="1140" unicode="+"/><glyph d="M-227 -295l219 412h119l-250 -412h-88z" glyph-name="comma" horiz-adv-x="264" unicode=","/><glyph d="M530 530l-20 -118h-481l20 118h481z" glyph-name="hyphen" horiz-adv-x="643" unicode="-"/><glyph d="M70 117l-23 -117h-117l21 117h119z" glyph-name="period" horiz-adv-x="227" unicode="."/><glyph d="M92 0h-119l897 1413h117z" glyph-name="slash" horiz-adv-x="958" unicode="/"/><glyph d="M760 1432q117 0 199.5 -56.5t119.5 -156t45.5 -231.5t-22.5 -281q-37 -207 -114 -367t-203 -260t-281 -100q-119 0 -201 57t-119 155.5t-45 230.5t21 284q37 207 113.5 366.5t203.5 259t283 99.5zM524 98q123 0 219.5 84t153.5 216t88 309q25 125 22 236.5t-28 193.5 t-86.5 130t-153.5 48q-123 0 -219 -84t-153.5 -216t-87.5 -308q-25 -127 -23 -238t27.5 -192.5t87 -130t153.5 -48.5z" glyph-name="zero" horiz-adv-x="1263" unicode="0"/><glyph d="M244 1413h352l-250 -1413h-117l228 1294h-236z" glyph-name="one" horiz-adv-x="659" unicode="1"/><glyph d="M903 117l-20 -117h-883l10 59q479 438 623 568q16 14 60 53t65.5 59.5t58.5 57.5t55.5 65.5t39 66.5t26.5 75.5t2 76.5q-12 102 -87 168t-179 66q-115 0 -216.5 -72t-144.5 -182l-102 45q31 70 80 129q106 127 258.5 173t288 -3t194.5 -180q33 -72 33 -155t-35 -167 q-20 -43 -51 -88q-47 -66 -148 -164l-581 -534h653z" glyph-name="two" horiz-adv-x="1157" unicode="2"/><glyph d="M700 956q174 -29 268.5 -165t61.5 -320q-35 -203 -204 -347t-373 -144q-160 0 -271.5 95t-134.5 244l117 46q14 -117 99 -192t212 -75q154 0 282 109.5t155.5 263.5t-62.5 263.5t-244 109.5q-35 0 -69 -6q-43 -8 -84 -25l16 90l410 391h-537l20 119h766l-10 -59z" glyph-name="three" horiz-adv-x="1218" unicode="3"/><glyph d="M889 471h244l-21 -119h-246l-61 -352h-117l62 352h-707l10 60l942 1001h60zM770 471l119 672l-633 -672h514z" glyph-name="four" horiz-adv-x="1286" unicode="4"/><glyph d="M651 961q203 0 322 -142.5t83 -346.5t-205 -348t-372 -144q-162 0 -273.5 95t-133.5 247l116 45q14 -119 99.5 -194t212.5 -75q154 0 281.5 109.5t155.5 263.5t-62.5 263.5t-243.5 109.5q-127 0 -242 -78l-139 18l137 629h727l-20 -119h-615l-88 -399q127 66 260 66z" glyph-name="five" horiz-adv-x="1241" unicode="5"/><glyph d="M903 897q102 -63 148.5 -179t23.5 -247q-35 -203 -204 -347t-372.5 -144t-321.5 144t-83 347q8 39 21 78q39 117 127 213q244 266 587 651h148l-430 -477q57 25 125 25q125 4 231 -64zM519.5 98q154.5 0 282.5 109.5t155.5 263.5t-62.5 263.5t-244.5 109.5t-282.5 -109.5 t-156 -263.5t62.5 -263.5t245 -109.5z" glyph-name="six" horiz-adv-x="1251" unicode="6"/><glyph d="M229 1413h824l-11 -59l-837 -1354h-137l800 1294h-661z" glyph-name="seven" horiz-adv-x="1032" unicode="7"/><glyph d="M836 795q104 -53 154 -156.5t28 -226.5q-31 -178 -188.5 -305t-348 -127t-303 126.5t-82.5 305.5q23 123 109 226t209 157q-57 49 -82 123.5t-10 160.5q27 145 147.5 249t267 104t231.5 -103.5t60 -249.5q-14 -86 -66 -160.5t-126 -123.5zM715.5 1315q-97.5 0 -178 -69.5 t-98 -167t40 -166t154.5 -68.5t178 68.5t98.5 166t-40 167t-155 69.5zM501.5 98q141.5 0 258.5 92.5t140.5 222.5t-61.5 221t-226.5 91t-258 -91t-140.5 -221t61 -222.5t226.5 -92.5z" glyph-name="eight" horiz-adv-x="1216" unicode="8"/><glyph d="M753.5 1432q202.5 0 321.5 -143.5t82 -348.5q-6 -39 -18 -76q-41 -119 -127 -213q-252 -276 -590 -651h-146l431 477q-59 -25 -125 -26q-125 -2 -232 63q-102 63 -149 179t-25 247q37 205 206 348.5t371.5 143.5zM601 569q155 0 284 108.5t155.5 263.5t-63.5 264.5 t-243.5 109.5t-282.5 -109.5t-156 -264.5t62 -263.5t244 -108.5z" glyph-name="nine" horiz-adv-x="1251" unicode="9"/><glyph d="M139 117l-22 -117h-117l20 117h119zM285 942l-23 -119h-117l21 119h119z" glyph-name="colon" horiz-adv-x="364" unicode=":"/><glyph d="M313 942l-20 -119h-119l21 119h118zM-170 -295l219 412h119l-250 -412h-88z" glyph-name="semicolon" horiz-adv-x="385" unicode=";"/><glyph d="M590 795l-21 -119l-401 -205l330 -207l-23 -117l-424 265l23 116z" glyph-name="less" horiz-adv-x="696" unicode="&lt;"/><glyph d="M958 707l-20 -119h-844l21 119h843zM897 352l-23 -116h-841l20 116h844z" glyph-name="equal" horiz-adv-x="1075" unicode="="/><glyph d="M117 676l20 119l426 -267l-22 -116l-516 -265l20 117l401 207z" glyph-name="greater" horiz-adv-x="698" unicode=">"/><glyph d="M426 117l-20 -117h-119l20 117h119zM1016 1163q20 -82 5 -172t-65 -172q-47 -80 -119.5 -140.5t-156.5 -94.5q-88 -35 -178 -35l-35 -197h-117l56 316q66 0 96 1t84.5 9t97.5 28.5t84 55.5q111 94 135.5 228t-54.5 229.5t-213 95.5t-245 -96q-82 -68 -119 -164l-102 45 q14 33 33 63q47 78 118.5 139.5t157.5 94.5q88 35 178.5 35t165.5 -35q74 -33 124.5 -94.5t68.5 -139.5z" glyph-name="question" horiz-adv-x="1101" unicode="?"/><glyph d="M1036 37q-145 -57 -292.5 -57t-272.5 57q-121 55 -203 155.5t-114 231.5q-33 135 -7.5 282.5t107.5 282.5q78 129 195.5 230.5t257.5 154.5q145 57 292.5 57.5t272.5 -57.5q121 -53 204 -154.5t115 -230.5q33 -135 6.5 -282.5t-106.5 -282.5q-78 -131 -197 -231.5 t-258 -155.5zM1229 1303q-111 51 -243 51t-261 -51q-125 -49 -230.5 -138.5t-175.5 -206.5q-72 -121 -95 -252t7 -251q29 -117 103 -206t180 -138q113 -51 244 -51.5t260 51.5q125 49 230.5 138t174.5 206q74 121 96.5 252t-6.5 251q-29 117 -102 206.5t-182 138.5z M1163 1028h80l-113 -631h-77l20 117q-113 -131 -272 -131q-137 0 -216 96t-55.5 232.5t137 232.5t248.5 96q160 0 228 -131zM814.5 461q103.5 0 189.5 73.5t104 177t-42 176.5t-163.5 73t-189.5 -73t-104.5 -176.5t42 -177t164 -73.5z" glyph-name="at" horiz-adv-x="1744" unicode="@"/><glyph d="M856 1413l309 -1413h-116l-84 383h-699l-219 -383h-117l809 1413h117zM334 500h604l-166 764z" glyph-name="A" horiz-adv-x="1341" unicode="A"/><glyph d="M965 733q94 -45 140 -140t25 -210q-27 -160 -158.5 -271.5t-289.5 -111.5h-502h-117l250 1413h529q160 0 252 -112.5t63 -270.5q-14 -88 -66 -166t-126 -131zM821 1294h-411l-95 -528h414q109 0 200 77t110.5 186.5t-44 187t-174.5 77.5zM702 117q109 0 201 77.5 t110.5 187.5t-45 187.5t-173.5 77.5h-500l-92 -530h499z" glyph-name="B" horiz-adv-x="1306" unicode="B"/><glyph d="M733 98q156 0 302.5 73t252.5 198l86 -66q-125 -147 -300 -235t-361 -88q-197 0 -347.5 97t-218 265t-32.5 364.5t161.5 363.5t311 264.5t381.5 97.5q186 0 329.5 -86t217.5 -236l-109 -66q-61 125 -182 198t-277 73q-252 0 -462 -178.5t-253 -429.5 q-29 -166 27.5 -306.5t182.5 -221.5t290 -81z" glyph-name="C" horiz-adv-x="1538" unicode="C"/><glyph d="M784 1413q190 0 337 -95t212.5 -257t31.5 -354.5t-157 -355.5t-302 -257t-371 -94h-472l250 1413h471zM555 117q244 0 446.5 173t245.5 416.5t-99 415.5t-386 172h-352l-207 -1177h352z" glyph-name="D" horiz-adv-x="1478" unicode="D"/><glyph d="M1233 1294h-823l-95 -528h707l-21 -119h-706l-92 -530h823l-20 -117h-943l250 1413h940z" glyph-name="E" horiz-adv-x="1224" unicode="E"/><glyph d="M1233 1294h-823l-105 -587h707l-21 -119h-706l-105 -588h-117l250 1413h940z" glyph-name="F" horiz-adv-x="1196" unicode="F"/><glyph d="M842 707l725 -2q-10 -59 -31 -117q-88 -260 -321.5 -434t-501.5 -174q-197 0 -347.5 97t-218 265t-32.5 364.5t161.5 363.5t311 264.5t381.5 97.5q186 0 329.5 -87.5t217.5 -234.5l-111 -63q-61 123 -181 195.5t-276 72.5q-252 0 -462 -178.5t-253 -429.5 q-29 -166 27.5 -306.5t182.5 -221.5t290 -81q221 0 412.5 139.5t271.5 350.5h-596z" glyph-name="G" horiz-adv-x="1662" unicode="G"/><glyph d="M313 1413h117l-115 -647h826l112 647h119l-250 -1413h-116l114 647h-825l-115 -647h-117z" glyph-name="H" horiz-adv-x="1435" unicode="H"/><glyph d="M180 0h-117l250 1413h117z" glyph-name="I" horiz-adv-x="493" unicode="I"/><glyph d="M760 1413h117l-191 -1079q-25 -147 -146.5 -250.5t-267.5 -103.5q-129 0 -212 80.5t-85 203.5l119 23q2 -82 57.5 -135.5t141.5 -53.5q96 0 178 69t98 167z" glyph-name="J" horiz-adv-x="929" unicode="J"/><glyph d="M424 707l551 -707h-176l-504 645l-115 -645h-117l250 1413h117l-113 -645l721 645h158z" glyph-name="K" horiz-adv-x="1155" unicode="K"/><glyph d="M848 109l-19 -109h-766l250 1413h117l-229 -1304h647z" glyph-name="L" horiz-adv-x="995" unicode="L"/><glyph d="M1489 1413h119l-250 -1413h-117l209 1188l-633 -924h-119l-307 924l-211 -1188h-117l250 1413h117l354 -1001z" glyph-name="M" horiz-adv-x="1671" unicode="M"/><glyph d="M1313 1413h119l-250 -1413h-117l-670 1217l-215 -1217h-117l250 1413h117l668 -1216z" glyph-name="N" horiz-adv-x="1495" unicode="N"/><glyph d="M969.5 1432q197.5 0 347 -97.5t217.5 -264.5t33 -363.5t-161 -364.5t-310.5 -265t-382 -97t-348 97t-218 265t-32.5 364.5t161.5 363.5t311 264.5t382 97.5zM733 98q252 0 462 178.5t255 430.5q29 166 -27.5 305t-182.5 221t-292 82q-252 0 -462 -178.5t-253 -429.5 q-29 -166 27.5 -306.5t182.5 -221.5t290 -81z" glyph-name="O" horiz-adv-x="1681" unicode="O"/><glyph d="M813 1413q182 0 288.5 -130t75 -312.5t-184 -311.5t-335.5 -129h-383l-94 -530h-117l250 1413h500zM678 647q133 0 244.5 95.5t135 229.5t-54 228t-210.5 94h-383v-2l-115 -645h383z" glyph-name="P" horiz-adv-x="1220" unicode="P"/><glyph d="M1450 707q29 166 -28.5 305t-182.5 221t-291 82q-252 0 -460.5 -178.5t-254.5 -429.5q-29 -166 27.5 -305.5t182.5 -221.5t290 -82q219 0 412 140l-324 391l99 84l323 -394q168 169 207 388zM1311 236l141 -170l-96 -84l-142 172q-233 -174 -501 -174q-197 0 -347.5 97 t-218 265t-32.5 365v0q35 199 161.5 365.5t311 264t382 97.5t347 -97.5t217.5 -264.5t33 -365v0q-47 -266 -256 -471z" glyph-name="Q" horiz-adv-x="1699" unicode="Q"/><glyph d="M770 545l264 -545h-137l-256 530h-367l-92 -530h-119l250 1413h500q182 0 288.5 -130t74.5 -312q-27 -152 -140.5 -270.5t-265.5 -155.5zM295 647h383q133 0 244.5 95.5t135 229.5t-54 228t-210.5 94h-383v-2z" glyph-name="R" horiz-adv-x="1265" unicode="R"/><glyph d="M936 371q-16 -125 -107 -224q-76 -82 -184 -127q-98 -41 -203 -40q-201 0 -317 122q-55 57 -78 136q-10 29 -12 59l117 45q6 -88 65 -152q88 -92 246 -92q80 0 153 31q78 31 132 88q59 66 71 149t-28 146q-27 43 -74 77t-84 51t-107.5 45t-93.5 38q-162 70 -205 178 q-47 113 17 248q35 76 95 137.5t134 95.5q119 55 246 49t217 -73q94 -68 113 -184l-117 -46q-2 27 -12 50q-20 51 -64 82q-74 53 -176 55t-193 -49q-86 -51 -133 -140.5t-16 -167.5q12 -29 33.5 -52t56.5 -42.5t57.5 -30t68.5 -26.5t60 -21q205 -82 281 -198q59 -94 41 -217 z" glyph-name="S" horiz-adv-x="1114" unicode="S"/><glyph d="M418 0h-117l227 1294h-383l23 119h883l-23 -119h-381z" glyph-name="T" horiz-adv-x="966" unicode="T"/><glyph d="M1237 1413l-170 -962q-35 -195 -196.5 -333t-357.5 -138t-308.5 138t-79.5 333l170 962h119l-170 -962q-27 -145 58 -249t231.5 -104t268.5 103.5t148 249.5l168 962h119z" glyph-name="U" horiz-adv-x="1284" unicode="U"/><glyph d="M1229 1413h127l-770 -1401l-8 -12h-117l-4 12l-277 1401h127l244 -1231z" glyph-name="V" horiz-adv-x="1286" unicode="V"/><glyph d="M1808 1413h127l-659 -1413h-119l-127 1227l-559 -1227h-119l-162 1413h127l127 -1227l560 1227h118l127 -1227z" glyph-name="W" horiz-adv-x="1878" unicode="W"/><glyph d="M1270 1413l-594 -706l346 -707h-137l-297 604l-508 -604h-137l596 707l-346 706h137l295 -604l508 604h137z" glyph-name="X" horiz-adv-x="1214" unicode="X"/><glyph d="M1104 1413h137l-606 -721l-123 -692h-117l121 692l-352 721h137l295 -604z" glyph-name="Y" horiz-adv-x="1155" unicode="Y"/><glyph d="M154 117h854l-21 -117h-1040l10 59l1042 1235h-766l21 119h952l-10 -59z" glyph-name="Z" horiz-adv-x="1181" unicode="Z"/><glyph d="M-8 -412l321 1825h355l-23 -119h-235l-279 -1589h236l-23 -117h-352z" glyph-name="bracketleft" horiz-adv-x="645" unicode="["/><glyph d="M741 0h-118l-398 1413h117z" glyph-name="backslash" horiz-adv-x="966" unicode="\"/><glyph d="M586 1413l-322 -1825h-354l22 117h236l278 1589h-235l22 119h353z" glyph-name="bracketright" horiz-adv-x="649" unicode="]"/><glyph d="M795 117l-21 -117h-844l21 117h844z" glyph-name="underscore" horiz-adv-x="954" unicode="_"/><glyph d="M406 1382l65 -292h-88l-125 292h148z" glyph-name="grave" horiz-adv-x="546" unicode="`"/><glyph d="M1061 942h117l-166 -940h-117l31 174q-80 -92 -185.5 -144t-222.5 -52q-203 0 -321.5 144t-82.5 347t204.5 346.5t371.5 143.5q119 0 206 -51.5t132 -143.5zM977 471q27 154 -62.5 263.5t-244 109.5t-283.5 -109.5t-155.5 -263.5t62.5 -263.5t243.5 -109.5t283.5 109.5 t156 263.5z" glyph-name="a" unicode="a"/><glyph d="M743 961q203 0 321 -143.5t82 -346.5t-205 -347t-372 -144q-117 0 -203.5 52t-134.5 142l-30 -174h-119l250 1413h117l-113 -647q78 92 183 143.5t224 51.5zM1029 470q28 155 -62 264.5t-246 109.5q-152 0 -279 -105.5t-157 -257.5l-4 -20q-20 -152 68.5 -257.5 t240.5 -105.5q156 0 283.5 108.5t155.5 263.5z" glyph-name="b" unicode="b"/><glyph d="M539 98q94 0 184 44t156 122l86 -65q-86 -100 -204 -159.5t-243 -59.5q-203 0 -321.5 144t-82.5 347t204.5 346.5t371.5 143.5q125 0 222.5 -58.5t148.5 -159.5l-111 -65q-37 76 -110.5 121t-169.5 45q-154 0 -283 -109.5t-155.5 -264.5t62.5 -263.5t245 -108.5z" glyph-name="c" horiz-adv-x="1107" unicode="c"/><glyph d="M1143 1413h119l-250 -1413h-119l33 174q-80 -90 -185.5 -142t-222.5 -52q-203 0 -321.5 144t-82.5 347t204.5 346.5t371.5 143.5q117 0 205 -51.5t133 -143.5zM979 481q23 152 -67.5 257.5t-241.5 105.5q-154 0 -283 -109.5t-155.5 -264.5t62.5 -263.5t245 -108.5 q152 0 278.5 105.5t157.5 257.5z" glyph-name="d" unicode="d"/><glyph d="M691 961q179 0 295 -115t116 -287q0 -43 -8 -88q-2 -14 -7 -29h-860q-14 -145 75 -244.5t237 -99.5q94 0 184 45t154 121l88 -65q-86 -100 -204 -159.5t-243 -59.5q-197 0 -314.5 134t-94.5 328q2 14 4 29q8 45 24 88q61 172 218 287t336 115zM258 559h723 q-8 123 -94 204t-217 81t-246 -81t-166 -204z" glyph-name="e" horiz-adv-x="1198" unicode="e"/><glyph d="M532 1122l-32 -180h295l-19 -108h-295l-147 -834h-117l145 834h-235l20 108h236l33 186q25 125 130 214.5t232 89.5q57 0 107 -21l-45 -117q-37 20 -82 21q-80 0 -146 -56.5t-80 -136.5z" glyph-name="f" horiz-adv-x="774" unicode="f"/><glyph d="M1061 942h117l-156 -883q-35 -203 -204 -347t-372 -144q-129 0 -226 60.5t-146 164.5l108 64q37 -78 112 -124t173 -46q154 0 283 108.5t155 263.5l21 117q-78 -92 -184.5 -144t-223.5 -52q-203 0 -321.5 144t-82.5 347t204.5 346.5t371.5 143.5q119 0 206 -52.5 t134 -142.5zM978 471q28 154 -62.5 263.5t-245 109.5t-283.5 -109.5t-155.5 -263.5t63.5 -263.5t244.5 -109.5t282.5 109.5t156 263.5z" glyph-name="g" unicode="g"/><glyph d="M645 961q162 0 256 -115t66 -277l-99 -569h-118l100 569q20 113 -46.5 194t-180 81t-207.5 -81t-115 -194l-100 -569h-119l250 1413h117l-103 -582q127 130 299 130z" glyph-name="h" horiz-adv-x="1097" unicode="h"/><glyph d="M309 1294h119l-22 -116h-117zM80 0l168 942h117l-166 -942h-119z" glyph-name="i" horiz-adv-x="446" unicode="i"/><glyph d="M371 942l-189 -1069q-25 -127 -130 -216t-232 -89q-57 0 -107 20l45 119q-2 -4 33 -14q18 -6 39 -6q82 -4 151.5 52t84.5 138l188 1065h117zM434 1294l-20 -116h-119l22 116h117z" glyph-name="j" horiz-adv-x="452" unicode="j"/><glyph d="M868 0h-168l-415 473l-84 -473h-119l250 1413h117l-146 -835l504 364h168l-563 -412z" glyph-name="k" horiz-adv-x="1011" unicode="k"/><glyph d="M332 1413h117l-250 -1413h-119z" glyph-name="l" horiz-adv-x="446" unicode="l"/><glyph d="M1516 0h-119l100 569q20 113 -46.5 194t-178.5 81q-92 0 -175 -55.5t-124 -141.5q2 -39 -6 -78l-99 -569h-118l100 569q20 113 -46.5 194t-180 81t-207.5 -81t-115 -194l-100 -569h-119l166 942h119l-21 -111q127 129 299 130q104 0 183 -50.5t118 -136.5 q61 86 151.5 136.5t194.5 50.5q162 0 257.5 -115t66.5 -277z" glyph-name="m" horiz-adv-x="1746" unicode="m"/><glyph d="M868 0h-118l100 569q20 113 -46.5 194t-180 81t-207.5 -81t-115 -194l-100 -569h-119l166 942h119l-21 -111q127 129 299 130q162 0 256 -115t66 -277z" glyph-name="n" horiz-adv-x="1097" unicode="n"/><glyph d="M690 961q203 0 321.5 -143.5t83 -346.5t-204.5 -347t-372 -144t-321.5 144t-82.5 347t204.5 346.5t371.5 143.5zM537.5 98q154.5 0 283.5 108.5t156 263.5t-62.5 264.5t-244 109.5t-283.5 -109.5t-155.5 -264.5t62.5 -263.5t243.5 -108.5z" glyph-name="o" horiz-adv-x="1208" unicode="o"/><glyph d="M743 961q203 0 322 -143.5t83 -346.5t-205 -347t-372 -144q-119 0 -205.5 52t-134.5 142l-102 -586h-119l240 1354h117l-31 -176q80 92 185 143.5t222 51.5zM592 98q154 0 283 108.5t155.5 263.5t-63.5 264.5t-244 109.5q-152 0 -279 -105.5t-157 -257.5l-4 -20 q-23 -152 67 -257.5t242 -105.5z" glyph-name="p" horiz-adv-x="1261" unicode="p"/><glyph d="M114 471q36 203 204.5 346.5t371.5 143.5q117 0 205 -51.5t133 -143.5l33 176h117l-240 -1354h-117l105 586q-80 -90 -185.5 -142t-222.5 -52q-203 0 -321.5 144t-82.5 347zM231.5 470q-26.5 -155 62.5 -263.5t245 -108.5q152 0 278.5 105.5t157.5 257.5l4 20 q23 152 -67.5 257.5t-241.5 105.5q-154 0 -283 -109.5t-155.5 -264.5z" glyph-name="q" unicode="q"/><glyph d="M674 961q66 0 123 -19l-43 -117q-47 18 -101 19q-127 0 -231.5 -89t-124.5 -216h-2l-94 -539h-119l166 942h119l-23 -129q140 148 330 148z" glyph-name="r" horiz-adv-x="776" unicode="r"/><glyph d="M768 383q18 -57 8 -119q-12 -66 -56 -125t-108 -98q-98 -59 -222 -60t-208 44q-45 23 -82 55q-39 35 -59 74l27 16q28 16 55 33l29 16q43 -78 141 -104q68 -18 139 -15q78 6 131 39q66 39 87.5 105.5t-17.5 120.5q-25 33 -64 45t-100 15t-84 9q-78 14 -129 60 q-41 35 -59 84q-18 53 -9 116q10 55 43 107q33 49 80 86q100 76 240 76q174 0 268 -103q23 -25 39 -53l-110 -64q-35 59 -107 84q-41 14 -92 15.5t-102.5 -10t-90.5 -47t-49 -91.5q-23 -131 185 -149q109 -10 178 -45t98 -117z" glyph-name="s" horiz-adv-x="929" unicode="s"/><glyph d="M633 119l2 -119q-55 -20 -113 -20q-127 0 -201.5 89t-54.5 216l96 549h-235l20 108h236l61 352h119l-63 -352h295l-19 -108h-295l-96 -545q-14 -80 36 -137.5t132 -53.5q35 3 80 21z" glyph-name="t" horiz-adv-x="804" unicode="t"/><glyph d="M897 942h119l-168 -942h-117l19 109q-127 -129 -297 -129q-162 0 -257.5 115.5t-66.5 277.5l100 569h119l-100 -569q-20 -115 46 -195t180 -80t208 80t115 195z" glyph-name="u" horiz-adv-x="1095" unicode="u"/><glyph d="M913 942h127l-548 -942h-127l-218 942h127l181 -784z" glyph-name="v" horiz-adv-x="1021" unicode="v"/><glyph d="M1448 942h119l-490 -942h-119l-129 770l-401 -770h-117l-157 942h116l129 -770l402 770h119l129 -770z" glyph-name="w" horiz-adv-x="1552" unicode="w"/><glyph d="M985 942l-422 -471l256 -471h-147l-201 369l-330 -369h-147l422 471l-256 471h147l201 -369l330 369h147z" glyph-name="x" horiz-adv-x="976" unicode="x"/><glyph d="M913 942h127l-788 -1354h-127l240 412l-218 942h127l183 -786z" glyph-name="y" horiz-adv-x="1024" unicode="y"/><glyph d="M209 109h616l-18 -109h-805l10 59l717 775h-541l21 108h725l-10 -59z" glyph-name="z" horiz-adv-x="972" unicode="z"/><glyph d="M604 1286q-63 -23 -106 -82q-53 -76 -52 -172q2 -29 13 -88q12 -68 14 -104q2 -66 -16 -129q-20 -70 -64 -125q-37 -51 -90 -88q39 -35 59 -86q23 -57 19 -125q-2 -63 -29 -129q-14 -37 -51 -105q-31 -59 -43 -88q-37 -96 -8 -172q23 -59 78 -82q18 -8 73 -6h23l-21 -119 h-20h-25q-57 0 -92 15q-45 18 -80 55q-33 35 -49 80q-23 57 -18 125q4 63 28 129q14 37 52 102q33 59 43 90q37 96 8 172q-20 51 -70 76q-23 10 -78 10h-20l20 117h21q55 0 82 10q57 25 96 76q55 76 53 172q-2 29 -12 90q-12 66 -14 103q-2 66 16 129q20 68 62 125 q33 45 77 79q47 37 99 56q45 14 123 14h20l-20 -119h-23q-55 2 -78 -6z" glyph-name="braceleft" horiz-adv-x="727" unicode="{"/><glyph d="M463 1589l-313 -1765h-117l311 1765h119z" glyph-name="bar" horiz-adv-x="495" unicode="|"/><glyph d="M406 1204q-23 59 -78 82q-18 8 -74 6h-23l21 119h20q78 0 117 -14q45 -18 80 -56q33 -35 49 -79q23 -57 19 -125q-4 -63 -31 -129q-14 -37 -49 -103q-33 -59 -43 -90q-39 -96 -8 -172q20 -51 69 -76q20 -10 78 -10h20h-2l-20 -117h-19q-57 0 -81 -10q-57 -25 -97 -76 q-57 -76 -53 -172q0 -31 12 -90q12 -66 15 -102q2 -66 -17 -129q-20 -68 -61 -125q-33 -45 -78 -80q-47 -37 -98 -55q-41 -14 -101 -15h-22h-21l21 119h22q55 -2 76 6q63 23 107 82q55 76 51 172q0 29 -12 88q-12 68 -13 105q-2 66 17 129q20 68 63 125q37 51 88 86 q-39 37 -57 88q-23 55 -19 125q2 63 27 129q16 37 51 104q33 59 43 88q40 96 11 172z" glyph-name="braceright" horiz-adv-x="729" unicode="}"/><glyph glyph-name="uni00A0" horiz-adv-x="460" unicode=" "/><glyph d="M307 942l-20 -119h-117l20 119h117zM129 588h117l-178 -1000h-117z" glyph-name="exclamdown" horiz-adv-x="413" unicode="¡"/><glyph d="M952 211q-74 -94 -179 -154.5t-220 -72.5l-27 -160h-118l28 160q-180 20 -279.5 159.5t-66.5 326.5t181.5 325.5t336.5 160.5l29 162h117l-29 -162q111 -12 193.5 -72.5t123.5 -154.5l-108 -65q-37 82 -113 130t-174 48q-156 0 -283.5 -108.5t-155.5 -263.5t62 -264.5 t246 -109.5q98 0 192.5 49.5t157.5 130.5z" glyph-name="cent" horiz-adv-x="1167" unicode="¢"/><glyph d="M938 117l-23 -117h-911l21 117q176 0 288 145q66 82 93.5 185.5t13.5 199.5h-244l23 119h192q-18 78 -25.5 141.5t6 142t52.5 148.5q57 102 151 166q100 68 211 68q78 0 142 -33q61 -31 102 -88q43 -59 57 -133l-114 -70q-8 90 -65.5 148.5t-141.5 58.5 q-121 0 -206 -111.5t-81 -230.5q2 -74 39 -187q2 -10 6 -20h322l-21 -119h-280q4 -78 -13 -160q-31 -164 -129 -286q-37 -47 -79 -84h614z" glyph-name="sterling" horiz-adv-x="1165" unicode="£"/><glyph d="M1333 1413l-395 -471h244l-21 -119h-323l-111 -131l-18 -104h411l-20 -117h-412l-84 -471h-117l82 471h-411l20 117h412l18 104l-65 131h-324l23 119h243l-229 471h137l289 -590h18l101 119l395 471h137z" glyph-name="yen" horiz-adv-x="1339" unicode="¥"/><glyph d="M848 113q25 -74 12 -156q-18 -123 -108 -221q-74 -82 -185 -127q-98 -41 -202 -41q-201 0 -318 123q-55 57 -78 135q-8 29 -12 59l119 45q4 -88 65 -151q88 -92 244 -92q80 0 156 30q78 31 129 88q45 49 63.5 113t5.5 121q-8 35 -26 61q-10 18 -27 35q-29 33 -73 60.5 t-78.5 43t-94 38t-86.5 34.5q-162 70 -204 176q-47 115 16 250q41 88 117 158q0 2 -2 6q-47 113 16 248q35 76 96.5 137.5t132.5 95.5q119 55 246 49t219 -73q94 -68 113 -184l-117 -46q-4 27 -12 50q-23 49 -66 82q-72 53 -174 55t-194 -49q-82 -51 -129 -137.5t-23 -161.5 q2 -4 4 -9q18 -47 68 -81q27 -18 58.5 -34t85.5 -35.5t65 -21.5q205 -82 278 -198q61 -94 43 -217q-18 -125 -106 -224q-19 -18 -37 -34zM801 217q59 66 71.5 149t-28.5 146q-25 43 -73 77t-84 51t-106.5 45t-95.5 38q-88 37 -137 84q-59 -57 -85.5 -128t-0.5 -132 q12 -29 32.5 -53.5t55.5 -43t57.5 -28.5t68.5 -26.5t61 -22.5q178 -70 256 -164z" glyph-name="section" horiz-adv-x="1200" unicode="§"/><glyph d="M430 1294h117l-21 -116h-118zM203 1178l20 116h117l-21 -116h-116z" glyph-name="dieresis" horiz-adv-x="563" unicode="¨"/><glyph d="M1036 37q-145 -57 -292.5 -57t-272.5 57q-121 55 -203 155.5t-114 231.5q-33 135 -7.5 282.5t107.5 282.5q78 129 195.5 230.5t257.5 154.5q145 57 292.5 57.5t272.5 -57.5q121 -53 204 -154.5t115 -230.5q33 -135 6.5 -282.5t-106.5 -282.5q-78 -131 -197 -231.5 t-258 -155.5zM1229 1303q-111 51 -243 51t-261 -51q-125 -49 -230.5 -138.5t-175.5 -206.5q-72 -121 -95 -252t7 -251q29 -117 103 -206t180 -138q113 -51 244 -51.5t260 51.5q125 49 230.5 138t174.5 206q74 121 96.5 252t-6.5 251q-29 117 -102 206.5t-182 138.5zM811 295 q106 0 204.5 49t170.5 135l59 -45q-86 -100 -203.5 -159.5t-244.5 -59.5q-203 0 -321 144.5t-82 347t205 346t372 143.5q125 0 222 -58.5t146 -158.5l-73 -43q-41 84 -123 132t-187 48q-170 0 -311 -119.5t-172 -289.5t68.5 -291t269.5 -121z" glyph-name="copyright" horiz-adv-x="1744" unicode="©"/><glyph d="M674 1413l57 -2l-82 -469h-59l16 86q-84 -96 -205 -96q-100 0 -159.5 71.5t-41 173t102.5 173t186 71.5q119 0 168 -96zM412.5 991q76.5 0 141 54.5t78 131t-31.5 131t-122 54.5t-141.5 -54.5t-77.5 -131t32 -131t121.5 -54.5z" glyph-name="ordfeminine" horiz-adv-x="735" unicode="ª"/><glyph d="M590 795l-21 -119l-401 -205l330 -207l-23 -117l-424 265l23 116zM1120 795l-20 -119l-404 -205l330 -207l-20 -117l-424 265l20 116z" glyph-name="guillemotleft" horiz-adv-x="1224" unicode="«"/><glyph glyph-name="uni00AD" horiz-adv-x="0" unicode="­"/><glyph d="M1591 989q33 -135 6.5 -282.5t-106.5 -282.5q-78 -131 -195.5 -231.5t-259.5 -155.5q-145 -57 -292.5 -57t-272.5 57q-121 55 -203 155.5t-114 231.5q-33 135 -7.5 282.5t107.5 282.5q78 129 195.5 230.5t257.5 154.5q145 57 292.5 57.5t272.5 -57.5 q121 -53 203.5 -154.5t115.5 -230.5zM1423 455q74 121 96.5 252t-6.5 251q-29 117 -102.5 206t-181.5 139q-111 51 -243 51t-261 -51q-125 -49 -230.5 -138.5t-175.5 -206.5q-72 -121 -95 -252t7 -251q29 -117 103 -206t180 -138q113 -51 244 -51.5t260 51.5q125 49 230 138 t175 206zM1237 883q-18 -102 -94 -181t-176 -104l176 -362h-92l-172 352h-244l-62 -352h-77l166 942h331q123 0 193.5 -86t50.5 -209zM649 668h256q88 0 163 62.5t90.5 152.5t-37 152.5t-140.5 62.5h-256z" glyph-name="registered" horiz-adv-x="1744" unicode="®"/><glyph d="M490.5 1421q101.5 0 161 -71.5t41 -173t-102.5 -173t-185.5 -71.5t-161 71.5t-41 173t102.5 173t185.5 71.5zM415 991q77 0 141.5 54.5t77.5 131t-32 131t-122 54.5t-141.5 -54.5t-77.5 -131t32 -131t122 -54.5z" glyph-name="degree" horiz-adv-x="731" unicode="°"/><glyph d="M586 766l-11 -59h-448l4 28q244 223 315 289q6 6 36 32.5t40 36t33 34t30 41t14 41t5 46.5q-6 51 -44 85t-91 34q-59 0 -110.5 -37t-73.5 -92l-52 23q14 35 41 65q53 66 131 89.5t147 -2t99 -91.5q35 -80 -2 -164q-10 -23 -26 -45q-23 -33 -74 -82l-297 -272h334z" glyph-name="uni00B2" horiz-adv-x="708" unicode="²"/><glyph d="M473 1182q88 -14 136 -84t32 -162q-18 -104 -104 -177t-189 -73q-82 0 -138 48t-67 124l60 23q6 -59 49 -97.5t106 -38.5q80 0 144.5 55.5t79 134.5t-31.5 134t-124 55q-18 0 -35 -4q-23 -4 -43 -12l8 45l209 201h-272l10 59h387l-6 -31z" glyph-name="uni00B3" horiz-adv-x="729" unicode="³"/><glyph d="M365 1374h147l-229 -295h-88z" glyph-name="acute" horiz-adv-x="514" unicode="´"/><glyph d="M981 942l-166 -942h-119l21 109q-127 -129 -299 -129q-160 0 -254 112l-90 -504h-117l240 1354h116l-100 -569q-20 -115 46.5 -195t180 -80t207.5 80t115 195l100 569h119z" glyph-name="uni00B5" horiz-adv-x="1093" unicode="µ"/><glyph d="M1366 1413l-20 -119h-177l-301 -1706h-116l299 1706h-234l-301 -1706h-119l160 901q-94 0 -174 37q-76 35 -128 99.5t-73 146.5q-23 86 -6 179t70 179q49 84 123.5 147.5t162.5 98.5q92 37 187 37h647zM578 608l120 686q-141 0 -260 -100t-143.5 -242.5t58 -243 t225.5 -100.5z" glyph-name="paragraph" horiz-adv-x="1363" unicode="¶"/><glyph d="M188 530l-20 -118h-119l21 118h118z" glyph-name="periodcentered" horiz-adv-x="319" unicode="·"/><glyph d="M-135 -236l135 236h129l-137 -236h-127z" glyph-name="cedilla" horiz-adv-x="0" unicode="¸"/><glyph d="M272 1413h179l-125 -706h-60l115 647h-119z" glyph-name="uni00B9" horiz-adv-x="495" unicode="¹"/><glyph d="M490.5 1421q101.5 0 161 -71.5t41 -173t-102.5 -173t-185.5 -71.5t-161 71.5t-41 173t102.5 173t185.5 71.5zM415 991q77 0 141.5 54.5t77.5 131t-32 131t-122 54.5t-141.5 -54.5t-77.5 -131t32 -131t122 -54.5z" glyph-name="ordmasculine" horiz-adv-x="731" unicode="º"/><glyph d="M647 676l21 119l424 -267l-21 -116l-518 -265l22 117l402 207zM117 676l20 119l426 -267l-22 -116l-516 -265l20 117l401 207z" glyph-name="guillemotright" horiz-adv-x="1224" unicode="»"/><glyph d="M203 0h-60l897 1413h58zM246 1413h176l-125 -706h-59l114 647h-116zM1024 236h123l-10 -60h-123l-31 -176h-59l30 176h-352l4 29l471 502h29zM965 236l59 335l-315 -335h256z" glyph-name="onequarter" horiz-adv-x="1347" unicode="¼"/><glyph d="M203 0h-60l897 1413h58zM246 1413h176l-125 -706h-59l114 647h-116zM811 59h332l-10 -59h-449l6 31q244 221 316 286q6 6 35.5 33t40 36t32 33.5t29.5 41t14 41t4 47.5q-6 53 -44 86t-91 33q-57 0 -108.5 -36t-73.5 -93l-53 24q16 35 40 64q55 66 133 89t146 -2.5 t98 -90.5q37 -80 0 -164q-10 -23 -26 -45q-25 -33 -76 -82z" glyph-name="onehalf" horiz-adv-x="1388" unicode="½"/><glyph d="M352 0h-59l895 1413h59zM1174 236h120l-10 -60h-123l-31 -176h-57l31 176h-354l6 29l471 502h28zM1114 236l60 335l-318 -335h258zM473 1182q88 -14 136 -84t32 -162q-18 -104 -104 -177t-189 -73q-82 0 -138 48t-67 124l60 23q6 -59 49 -97.5t106 -38.5q80 0 144.5 55.5 t79 134.5t-31.5 134t-124 55q-18 0 -35 -4q-23 -4 -43 -12l8 45l209 201h-272l10 59h387l-6 -31z" glyph-name="threequarters" horiz-adv-x="1497" unicode="¾"/><glyph d="M561 823l21 119h118l-22 -119h-117zM-18 -162q-20 82 -5 172t64 172q47 78 118.5 139.5t157.5 94.5q88 35 179 35l24 137h117l-45 -254q-66 0 -97.5 -2t-85 -9.5t-96.5 -28t-84 -54.5q-113 -96 -136 -230.5t55.5 -228.5t213 -94t244.5 94q82 70 117 164l102 -45 q-12 -31 -30 -62q-47 -80 -120 -140t-157 -95q-88 -35 -178 -35t-166 35q-74 35 -124 95t-68 140z" glyph-name="questiondown" horiz-adv-x="790" unicode="¿"/><glyph d="M856 1413l309 -1413h-116l-84 383h-699l-219 -383h-117l809 1413h117zM334 500h604l-166 764zM745 1561l-124 292h147l66 -292h-89z" glyph-name="Agrave" horiz-adv-x="1341" unicode="À"/><glyph d="M856 1413l309 -1413h-116l-84 383h-699l-219 -383h-117l809 1413h117zM334 500h604l-166 764zM911 1561h-88l170 292h148z" glyph-name="Aacute" horiz-adv-x="1341" unicode="Á"/><glyph d="M1073 1561h-88l-121 231l-202 -231h-89l228 292h147zM856 1413l309 -1413h-116l-84 383h-699l-219 -383h-117l809 1413h117zM334 500h604l-166 764z" glyph-name="Acircumflex" horiz-adv-x="1341" unicode="Â"/><glyph d="M928 1522q-47 4 -105 39q-8 4 -30.5 18t-34.5 20q-49 29 -92 0q-10 -6 -17.5 -14t-11.5 -15t-9 -20.5t-7.5 -18.5t-7.5 -22.5t-5 -19.5l-90 12q31 102 62 141q66 82 159 72q43 -4 92 -31q12 -6 39 -23.5t41 -23.5q51 -25 90 0q10 6 17.5 15.5t12.5 15.5t10.5 20.5 t6.5 19.5t6 21.5t5 20.5l90 -14q-31 -102 -62 -142q-63 -81 -159 -71zM856 1413l309 -1413h-116l-84 383h-699l-219 -383h-117l809 1413h117zM334 500h604l-166 764z" glyph-name="Atilde" horiz-adv-x="1341" unicode="Ã"/><glyph d="M801 1677l-23 -116h-116l20 116h119zM1006 1677l-21 -116h-117l21 116h117zM856 1413l309 -1413h-116l-84 383h-699l-219 -383h-117l809 1413h117zM334 500h604l-166 764z" glyph-name="Adieresis" horiz-adv-x="1341" unicode="Ä"/><glyph d="M858 1403l307 -1403h-116l-84 383h-699l-219 -383h-117l803 1403q-51 20 -76.5 68.5t-15.5 107.5q12 78 76.5 132t141.5 54t122 -54t33 -132q-10 -59 -53.5 -107.5t-102.5 -68.5zM728 1579q-7 -41 16.5 -69.5t64.5 -28.5t75 28.5t41 69.5t-16.5 69.5t-64.5 28.5 t-75 -28.5t-41 -69.5zM334 500h604l-166 764z" glyph-name="Aring" horiz-adv-x="1343" unicode="Å"/><glyph d="M922 1114l-54 -297l-8 -51h707l-21 -119h-706l-27 -147l-20 -117l-48 -266h824l-21 -117h-942l68 383h-408l-219 -383h-117l809 1413h1059l-20 -119h-826zM696 500l107 614l33 180h-50l-452 -794h362z" glyph-name="AE" horiz-adv-x="1769" unicode="Æ"/><glyph d="M1374 303q-121 -143 -287.5 -229t-347.5 -92l-125 -218h-127l129 224q-262 35 -405 239.5t-96 479.5q35 197 161.5 363.5t311 264t381.5 97.5q186 0 329.5 -86t217.5 -236l-109 -66q-61 125 -182 198t-277 73q-252 0 -462 -178.5t-253 -429.5q-29 -166 27.5 -306.5 t182.5 -221.5t290 -81q156 0 302.5 73t252.5 198z" glyph-name="Ccedilla" horiz-adv-x="1538" unicode="Ç"/><glyph d="M1233 1294h-823l-95 -528h707l-21 -119h-706l-92 -530h823l-20 -117h-943l250 1413h940zM854 1561l-125 294h148l65 -294h-88z" glyph-name="Egrave" horiz-adv-x="1224" unicode="È"/><glyph d="M1233 1294h-823l-95 -528h707l-21 -119h-706l-92 -530h823l-20 -117h-943l250 1413h940zM993 1853l-227 -292h-88l168 292h147z" glyph-name="Eacute" horiz-adv-x="1224" unicode="É"/><glyph d="M1233 1294h-823l-95 -528h707l-21 -119h-706l-92 -530h823l-20 -117h-943l250 1413h940zM1059 1561h-88l-121 231l-203 -231h-88l229 292h146z" glyph-name="Ecircumflex" horiz-adv-x="1224" unicode="Ê"/><glyph d="M1233 1294h-823l-95 -528h707l-21 -119h-706l-92 -530h823l-20 -117h-943l250 1413h940zM786 1677l-20 -116h-119l21 116h118zM991 1677l-20 -116h-117l20 116h117z" glyph-name="Edieresis" horiz-adv-x="1224" unicode="Ë"/><glyph d="M180 0h-117l250 1413h117zM369 1561l-125 294h147l66 -294h-88z" glyph-name="Igrave" horiz-adv-x="493" unicode="Ì"/><glyph d="M180 0h-117l250 1413h117zM655 1853l-229 -292h-88l170 292h147z" glyph-name="Iacute" horiz-adv-x="497" unicode="Í"/><glyph d="M180 0h-117l250 1413h117zM647 1561h-88l-121 231l-202 -231h-89l228 292h147z" glyph-name="Icircumflex" horiz-adv-x="497" unicode="Î"/><glyph d="M180 0h-117l250 1413h117zM375 1677l-23 -116h-116l20 116h119zM580 1677l-21 -116h-117l21 116h117z" glyph-name="Idieresis" horiz-adv-x="495" unicode="Ï"/><glyph d="M879 1413q193 0 338 -95t210.5 -257t31.5 -354.5t-156.5 -355.5t-302 -257t-371.5 -94h-471l114 647h-204l20 119h205l115 647h471zM649 117q244 0 446.5 173t245.5 416.5t-98 415.5t-385 172h-354l-92 -528h499l-20 -119h-500l-94 -530h352z" glyph-name="Eth" horiz-adv-x="1572" unicode="Ð"/><glyph d="M1313 1413h119l-250 -1413h-117l-670 1217l-215 -1217h-117l250 1413h117l668 -1216zM1001 1522q-45 4 -104 39q-8 4 -30.5 18t-35.5 20q-49 29 -92 0q-8 -6 -16 -14t-12 -15t-9.5 -20.5t-7.5 -18.5t-6 -22.5t-6 -19.5l-88 12q29 102 59 141q66 82 162 72q43 -4 92 -31 q10 -6 37 -23.5t43 -23.5q49 -25 90 0q8 6 15.5 15.5t12.5 15.5t10 20.5t7 19.5t6.5 21.5t4.5 20.5l90 -14q-29 -102 -62 -142q-64 -81 -160 -71z" glyph-name="Ntilde" horiz-adv-x="1495" unicode="Ñ"/><glyph d="M969.5 1432q197.5 0 347 -97.5t217.5 -264.5t33 -363.5t-161 -364.5t-310.5 -265t-382 -97t-348 97t-218 265t-32.5 364.5t161.5 363.5t311 264.5t382 97.5zM733 98q252 0 462 178.5t255 430.5q29 166 -27.5 305t-182.5 221t-292 82q-252 0 -462 -178.5t-253 -429.5 q-29 -166 27.5 -306.5t182.5 -221.5t290 -81zM1036 1561l-125 294h148l65 -294h-88z" glyph-name="Ograve" horiz-adv-x="1681" unicode="Ò"/><glyph d="M969.5 1432q197.5 0 347 -97.5t217.5 -264.5t33 -363.5t-161 -364.5t-310.5 -265t-382 -97t-348 97t-218 265t-32.5 364.5t161.5 363.5t311 264.5t382 97.5zM733 98q252 0 462 178.5t255 430.5q29 166 -27.5 305t-182.5 221t-292 82q-252 0 -462 -178.5t-253 -429.5 q-29 -166 27.5 -306.5t182.5 -221.5t290 -81zM1176 1853l-228 -292h-88l168 292h148z" glyph-name="Oacute" horiz-adv-x="1681" unicode="Ó"/><glyph d="M969.5 1432q197.5 0 347 -97.5t217.5 -264.5t33 -363.5t-161 -364.5t-310.5 -265t-382 -97t-348 97t-218 265t-32.5 364.5t161.5 363.5t311 264.5t382 97.5zM733 98q252 0 462 178.5t255 430.5q29 166 -27.5 305t-182.5 221t-292 82q-252 0 -462 -178.5t-253 -429.5 q-29 -166 27.5 -306.5t182.5 -221.5t290 -81zM1241 1561h-88l-121 231l-203 -231h-88l230 292h145z" glyph-name="Ocircumflex" horiz-adv-x="1681" unicode="Ô"/><glyph d="M969.5 1432q197.5 0 347 -97.5t217.5 -264.5t33 -363.5t-161 -364.5t-310.5 -265t-382 -97t-348 97t-218 265t-32.5 364.5t161.5 363.5t311 264.5t382 97.5zM733 98q252 0 462 178.5t255 430.5q29 166 -27.5 305t-182.5 221t-292 82q-252 0 -462 -178.5t-253 -429.5 q-29 -166 27.5 -306.5t182.5 -221.5t290 -81zM1096 1522q-45 4 -105 39q-8 4 -30.5 18t-34.5 20q-49 29 -92 0q-8 -6 -16.5 -14t-12.5 -15t-9 -20.5t-7.5 -18.5t-6.5 -22.5t-6 -19.5l-88 12q29 102 60 141q66 82 159 72q45 -4 94 -31q10 -6 37 -23.5t43 -23.5q49 -25 90 0 q8 6 15.5 15.5t12.5 15.5t10 20.5t6.5 19.5t6.5 21.5t5 20.5l90 -14q-29 -102 -62 -142q-63 -81 -159 -71z" glyph-name="Otilde" horiz-adv-x="1681" unicode="Õ"/><glyph d="M969.5 1432q197.5 0 347 -97.5t217.5 -264.5t33 -363.5t-161 -364.5t-310.5 -265t-382 -97t-348 97t-218 265t-32.5 364.5t161.5 363.5t311 264.5t382 97.5zM733 98q252 0 462 178.5t255 430.5q29 166 -27.5 305t-182.5 221t-292 82q-252 0 -462 -178.5t-253 -429.5 q-29 -166 27.5 -306.5t182.5 -221.5t290 -81zM969 1677l-21 -116h-119l21 116h119zM1174 1677l-21 -116h-117l21 116h117z" glyph-name="Odieresis" horiz-adv-x="1681" unicode="Ö"/><glyph d="M874 762l-342 -291l240 -293l-96 -82l-242 291l-342 -291l-67 82l342 293l-240 291l98 84l240 -293l342 293z" glyph-name="multiply" horiz-adv-x="980" unicode="×"/><glyph d="M1438 1235q90 -102 125.5 -238.5t9.5 -289.5q-35 -197 -162 -365t-311.5 -265t-380.5 -97q-240 0 -406 141l-141 -141l-59 57l143 141q-90 100 -126 237.5t-9 291.5q35 197 162 363.5t311 264t381 97.5q238 0 405 -142l142 142l57 -56zM238 707q-23 -127 6.5 -241 t101.5 -198l942 932q-139 115 -334 115q-252 0 -461.5 -178t-254.5 -430zM739 98q252 0 462 178.5t253 430.5q23 127 -6 239.5t-102 198.5l-940 -932q136 -115 333 -115z" glyph-name="Oslash" horiz-adv-x="1691" unicode="Ø"/><glyph d="M836 1561l-125 292h147l66 -292h-88zM1237 1413l-170 -962q-35 -195 -196.5 -333t-357.5 -138t-308.5 138t-79.5 333l170 962h119l-170 -962q-27 -145 58 -249t231.5 -104t268.5 103.5t148 249.5l168 962h119z" glyph-name="Ugrave" horiz-adv-x="1284" unicode="Ù"/><glyph d="M1237 1413l-170 -962q-35 -195 -196.5 -333t-357.5 -138t-308.5 138t-79.5 333l170 962h119l-170 -962q-27 -145 58 -249t231.5 -104t268.5 103.5t148 249.5l168 962h119zM860 1561h-88l170 292h148z" glyph-name="Uacute" horiz-adv-x="1284" unicode="Ú"/><glyph d="M1042 1561h-88l-120 231l-203 -231h-90l229 292h148zM1237 1413l-170 -962q-35 -195 -196.5 -333t-357.5 -138t-308.5 138t-79.5 333l170 962h119l-170 -962q-27 -145 58 -249t231.5 -104t268.5 103.5t148 249.5l168 962h119z" glyph-name="Ucircumflex" horiz-adv-x="1284" unicode="Û"/><glyph d="M768 1677l-20 -116h-117l20 116h117zM975 1677l-21 -116h-118l20 116h119zM1237 1413l-170 -962q-35 -195 -196.5 -333t-357.5 -138t-308.5 138t-79.5 333l170 962h119l-170 -962q-27 -145 58 -249t231.5 -104t268.5 103.5t148 249.5l168 962h119z" glyph-name="Udieresis" horiz-adv-x="1284" unicode="Ü"/><glyph d="M1104 1413h137l-606 -721l-123 -692h-117l121 692l-352 721h137l295 -604zM987 1853l-229 -292h-88l170 292h147z" glyph-name="Yacute" horiz-adv-x="1155" unicode="Ý"/><glyph d="M766 1147q182 0 288.5 -129t75 -311.5t-184 -312.5t-335.5 -130h-383l-45 -264h-119l250 1413h117l-47 -266h383zM631 383q135 0 246.5 94t135 228.5t-55 229.5t-212.5 95h-383v-2l-114 -645h383z" glyph-name="Thorn" horiz-adv-x="1224" unicode="Þ"/><glyph d="M848 733q98 -47 146 -144t28 -216q-29 -162 -164 -277.5t-299 -115.5q-119 0 -205 67l82 96q61 -45 144 -45q115 0 209 80t114 195q20 113 -44 192.5t-175 81.5h-160l21 119h65q113 0 208 80t114.5 193.5t-46 194.5t-179 81t-209 -81t-115.5 -194l-182 -1040h-119 l184 1040q29 162 164 277t298 115t257 -115t66 -277q-16 -92 -69.5 -172t-133.5 -135z" glyph-name="germandbls" horiz-adv-x="1148" unicode="ß"/><glyph d="M1061 942h117l-166 -940h-117l31 174q-80 -92 -185.5 -144t-222.5 -52q-203 0 -321.5 144t-82.5 347t204.5 346.5t371.5 143.5q119 0 206 -51.5t132 -143.5zM537.5 98q154.5 0 283.5 109.5t156 263.5t-62.5 263.5t-244 109.5t-283.5 -109.5t-155.5 -263.5t62.5 -263.5 t243.5 -109.5zM772 1090l-125 292h148l65 -292h-88z" glyph-name="agrave" unicode="à"/><glyph d="M1061 942h117l-166 -940h-117l31 174q-80 -92 -185.5 -144t-222.5 -52q-203 0 -321.5 144t-82.5 347t204.5 346.5t371.5 143.5q119 0 206 -51.5t132 -143.5zM537.5 98q154.5 0 283.5 109.5t156 263.5t-63.5 263.5t-244 109.5t-282.5 -109.5t-155.5 -263.5t62.5 -263.5 t243.5 -109.5zM1030 1382l-229 -292h-88l170 292h147z" glyph-name="aacute" unicode="á"/><glyph d="M979 1090h-90l-121 231l-203 -231h-88l230 292h147zM1178 942l-166 -940h-117l31 174q-80 -92 -185.5 -144t-222.5 -52q-203 0 -321.5 144t-82.5 347t204.5 346.5t371.5 143.5q119 0 206 -51.5t132 -143.5l33 176h117zM538.5 98q153.5 0 282.5 109.5t156 263.5 t-62.5 263.5t-244 109.5t-283.5 -109.5t-155.5 -263.5t63.5 -263.5t243.5 -109.5z" glyph-name="acircumflex" unicode="â"/><glyph d="M1061 942h117l-166 -940h-117l31 174q-80 -92 -185.5 -144t-222.5 -52q-203 0 -321.5 144t-82.5 347t204.5 346.5t371.5 143.5q119 0 206 -51.5t132 -143.5zM537.5 98q154.5 0 283.5 109.5t156 263.5t-62.5 263.5t-244 109.5t-283.5 -109.5t-155.5 -263.5t62.5 -263.5 t243.5 -109.5zM834 1139q-47 6 -105 39q-8 6 -30.5 19t-34.5 20q-51 29 -93 0q-10 -6 -17 -14.5t-12 -15.5t-10.5 -20.5t-6.5 -18.5t-6 -21.5t-5 -20.5l-90 12q31 104 61 144q63 80 160 71q43 -4 92 -33q12 -6 39 -22t41 -25q51 -25 90 2q10 4 17.5 13.5t11.5 16.5t9 20.5 t7 18.5t7.5 21.5t5.5 20.5l90 -12q-31 -104 -62 -144q-63 -79 -159 -71z" glyph-name="atilde" unicode="ã"/><glyph d="M1061 942h117l-166 -940h-117l31 174q-80 -92 -185.5 -144t-222.5 -52q-203 0 -321.5 144t-82.5 347t204.5 346.5t371.5 143.5q119 0 206 -51.5t132 -143.5zM537.5 98q154.5 0 283.5 109.5t156 263.5t-62.5 263.5t-244 109.5t-283.5 -109.5t-155.5 -263.5t62.5 -263.5 t243.5 -109.5zM721 1294l-23 -116h-116l20 116h119zM926 1294l-21 -116h-117l21 116h117z" glyph-name="adieresis" unicode="ä"/><glyph d="M1061 942h117l-166 -940h-117l31 174q-80 -92 -185.5 -144t-222.5 -52q-203 0 -321.5 144t-82.5 347t204.5 346.5t371.5 143.5q119 0 206 -51.5t132 -143.5zM537.5 98q154.5 0 283.5 108.5t156 263.5t-62.5 264.5t-244 109.5t-283.5 -109.5t-155.5 -264.5t62.5 -263.5 t243.5 -108.5zM800 1413q77 0 122 -55t31.5 -132t-78 -131.5t-141.5 -54.5t-122 54.5t-31.5 131.5t78 132t141.5 55zM750 1128q41 0 74.5 29t40.5 70t-16.5 69.5t-64.5 28.5t-74.5 -28.5t-40.5 -69.5t16.5 -70t64.5 -29z" glyph-name="aring" unicode="å"/><glyph d="M1957 471q-5 -29 -13 -59h-854q-4 -133 85 -223.5t226 -90.5q96 0 185 45t155 121l86 -65q-84 -100 -203 -159.5t-244 -59.5q-111 0 -198.5 46t-143.5 126l-26 -150h-117l31 174q-80 -90 -185.5 -142t-222.5 -52q-203 0 -321.5 143t-82.5 347t204.5 347.5t371.5 143.5 q119 0 206 -52.5t132 -142.5l33 176h117l-27 -153q82 80 187.5 125t215.5 45q186 0 303 -124t107 -307q-2 -30 -7 -59zM539 98q152 0 278.5 106.5t157.5 258.5q2 6 2 8q0 4 2 8q23 152 -66.5 259.5t-242.5 107.5q-154 0 -283 -109.5t-155.5 -264.5t63.5 -264.5t244 -109.5z M1110 530h735q2 133 -86 223.5t-226 90.5t-258 -90.5t-165 -223.5z" glyph-name="ae" horiz-adv-x="2064" unicode="æ"/><glyph d="M539 98q94 0 184 45t156 121l86 -65q-78 -90 -182.5 -147.5t-217.5 -69.5l-127 -218h-127l129 224q-172 27 -265 164t-62 319q37 203 205.5 346.5t371.5 143.5q125 0 222.5 -58.5t148.5 -159.5l-111 -65q-37 76 -110.5 121t-169.5 45q-154 0 -283 -109.5t-155.5 -263.5 t63.5 -263.5t244 -109.5z" glyph-name="ccedilla" horiz-adv-x="1107" unicode="ç"/><glyph d="M772 1092l-125 294h148l65 -294h-88zM1087 442h-860q-14 -145 75 -244.5t237 -99.5q94 0 184 45t154 121l88 -65q-86 -100 -204 -159.5t-243 -59.5q-197 0 -314.5 134t-94.5 328q2 14 4 29q8 45 24 88q61 172 218 287t336 115t295 -115t116 -287q0 -43 -8 -88 q-3 -15 -7 -29zM258 559h723q-8 123 -94 204t-217 81t-246 -81t-166 -204z" glyph-name="egrave" horiz-adv-x="1198" unicode="è"/><glyph d="M1030 1382l-229 -292h-88l170 292h147zM1087 442h-860q-14 -145 75 -244.5t237 -99.5q94 0 184 45t154 121l88 -65q-86 -100 -204 -159.5t-243 -59.5q-197 0 -314.5 134t-94.5 328q2 14 4 29q8 45 24 88q61 172 218 287t336 115t295 -115t116 -287q0 -43 -8 -88 q-3 -15 -7 -29zM258 559h723q-8 123 -94 204t-217 81t-246 -81t-166 -204z" glyph-name="eacute" horiz-adv-x="1198" unicode="é"/><glyph d="M979 1090h-90l-121 231l-203 -231h-88l230 292h147zM1087 442h-860q-14 -145 75 -244.5t237 -99.5q94 0 184 45t154 121l88 -65q-86 -100 -204 -159.5t-243 -59.5q-197 0 -314.5 134t-94.5 328q2 14 4 29q8 45 24 88q61 172 218 287t336 115t295 -115t116 -287 q0 -43 -8 -88q-3 -15 -7 -29zM258 559h723q-8 123 -94 204t-217 81t-246 -81t-166 -204z" glyph-name="ecircumflex" horiz-adv-x="1198" unicode="ê"/><glyph d="M721 1294l-23 -116h-116l20 116h119zM926 1294l-21 -116h-117l21 116h117zM1087 442h-860q-14 -145 75 -244.5t237 -99.5q94 0 184 45t154 121l88 -65q-86 -100 -204 -159.5t-243 -59.5q-197 0 -314.5 134t-94.5 328q2 14 4 29q8 45 24 88q61 172 218 287t336 115 t295 -115t116 -287q0 -43 -8 -88q-3 -15 -7 -29zM258 559h723q-8 123 -94 204t-217 81t-246 -81t-166 -204z" glyph-name="edieresis" horiz-adv-x="1198" unicode="ë"/><glyph d="M248 942h117l-166 -942h-119zM303 1090l-125 292h148l65 -292h-88z" glyph-name="igrave" horiz-adv-x="446" unicode="ì"/><glyph d="M248 942h117l-166 -942h-119zM590 1382l-228 -292h-88l168 292h148z" glyph-name="iacute" horiz-adv-x="450" unicode="í"/><glyph d="M248 942h117l-166 -942h-119zM582 1090h-88l-121 231l-203 -231h-88l229 292h146z" glyph-name="icircumflex" horiz-adv-x="448" unicode="î"/><glyph d="M248 942h117l-166 -942h-119zM324 1294l-21 -116h-117l21 116h117zM530 1294l-20 -116h-119l21 116h118z" glyph-name="idieresis" horiz-adv-x="448" unicode="ï"/><glyph d="M1102 549q0 -39 -8 -78q-35 -203 -204 -347t-373 -144t-321.5 144t-82.5 347q25 131 111.5 247t211.5 179q131 68 254 64q66 0 117 -25l-127 229l-201 -118l-37 71l199 119l-96 176h147q6 -14 60 -110l182 110l37 -74l-180 -106q223 -406 260 -471q53 -96 51 -213z M537.5 98q154.5 0 283.5 109.5t156 263.5t-63.5 263.5t-244 109.5t-282.5 -109.5t-155.5 -263.5t62.5 -263.5t243.5 -109.5z" glyph-name="eth" horiz-adv-x="1208" unicode="ð"/><glyph d="M750 0l100 569q20 113 -46.5 194t-180 81t-209 -81t-113.5 -194l-100 -569h-119l166 942h119l-21 -111q127 129 297 130q164 0 258 -115t66 -277l-101 -569h-116zM766 1130q-47 4 -104 39q-10 4 -32 17.5t-34 21.5q-51 29 -94 0q-8 -6 -15.5 -15t-12.5 -15.5t-10 -19.5 t-7 -19t-6.5 -22.5t-4.5 -18.5l-90 12q29 102 62 141q63 82 160 72q43 -4 92 -31q12 -6 37.5 -23.5t42.5 -23.5q51 -27 90 0q8 6 16 15.5t12 15.5t9.5 19.5t7.5 19.5t6 22.5t6 18.5q88 -12 88 -13q-29 -102 -59 -141q-66 -82 -160 -72z" glyph-name="ntilde" horiz-adv-x="1097" unicode="ñ"/><glyph d="M690 961q203 0 321.5 -143.5t83 -346.5t-204.5 -347t-372 -144t-321.5 144t-82.5 347t204.5 346.5t371.5 143.5zM537.5 98q154.5 0 283.5 109.5t156 263.5t-62.5 263.5t-244 109.5t-283.5 -109.5t-155.5 -263.5t62.5 -263.5t243.5 -109.5zM772 1090l-125 292h148l65 -292 h-88z" glyph-name="ograve" horiz-adv-x="1208" unicode="ò"/><glyph d="M690 961q203 0 321.5 -143.5t83 -346.5t-204.5 -347t-372 -144t-321.5 144t-82.5 347t204.5 346.5t371.5 143.5zM537.5 98q154.5 0 283.5 109.5t156 263.5t-62.5 263.5t-244 109.5t-283.5 -109.5t-155.5 -263.5t62.5 -263.5t243.5 -109.5zM1030 1382l-229 -292h-88 l170 292h147z" glyph-name="oacute" horiz-adv-x="1208" unicode="ó"/><glyph d="M690 961q203 0 321.5 -143.5t83 -346.5t-204.5 -347t-372 -144t-321.5 144t-82.5 347t204.5 346.5t371.5 143.5zM537.5 98q154.5 0 283.5 109.5t156 263.5t-62.5 263.5t-244 109.5t-283.5 -109.5t-155.5 -263.5t62.5 -263.5t243.5 -109.5zM979 1090h-90l-121 231 l-203 -231h-88l230 292h147z" glyph-name="ocircumflex" horiz-adv-x="1208" unicode="ô"/><glyph d="M690 961q203 0 321.5 -143.5t83 -346.5t-204.5 -347t-372 -144t-321.5 144t-82.5 347t204.5 346.5t371.5 143.5zM537.5 98q154.5 0 283.5 109.5t156 263.5t-62.5 263.5t-244 109.5t-283.5 -109.5t-155.5 -263.5t62.5 -263.5t243.5 -109.5zM831 1133q-45 4 -104 36 q-8 6 -30.5 19.5t-34.5 21.5q-49 27 -93 0q-8 -6 -16 -15t-12 -15t-9.5 -20.5t-7.5 -19.5t-6 -21.5t-6 -20.5q-88 14 -90 14q31 102 61 141q66 82 160 72q45 -4 94 -31q10 -6 37 -23.5t43 -25.5q49 -25 90 2q8 6 15.5 14.5t12.5 15.5t10 20.5t6 18.5t6.5 22.5t5.5 19.5 l90 -12q-31 -102 -62 -142q-64 -81 -160 -71z" glyph-name="otilde" horiz-adv-x="1208" unicode="õ"/><glyph d="M690 961q203 0 321.5 -143.5t83 -346.5t-204.5 -347t-372 -144t-321.5 144t-82.5 347t204.5 346.5t371.5 143.5zM537.5 98q154.5 0 283.5 109.5t156 263.5t-62.5 263.5t-244 109.5t-283.5 -109.5t-155.5 -263.5t62.5 -263.5t243.5 -109.5zM721 1294l-23 -116h-116l20 116 h119zM926 1294l-21 -116h-117l21 116h117z" glyph-name="odieresis" horiz-adv-x="1208" unicode="ö"/><glyph d="M621 942l-21 -119h-117l21 119h117zM338 0l20 117h117l-20 -117h-117zM68 530h843l-20 -118h-844z" glyph-name="divide" horiz-adv-x="1042" unicode="÷"/><glyph d="M1004 831q133 -145 96 -360q-37 -203 -206 -347t-372 -144q-160 0 -270 94l-74 -74l-39 37l74 74q-133 145 -96 360q37 203 206 346.5t371 143.5q160 0 271 -93l73 74l39 -37zM236 471q-29 -160 67 -270l571 577q-84 66 -200 66q-154 0 -282.5 -109.5t-155.5 -263.5z M543 98q154 0 282.5 109.5t155.5 263.5q29 160 -68 268l-571 -575q84 -66 201 -66z" glyph-name="oslash" horiz-adv-x="1214" unicode="ø"/><glyph d="M709 1092l-125 294h147l66 -294h-88zM897 942h119l-168 -942h-117l19 109q-127 -129 -297 -129q-162 0 -257.5 115.5t-66.5 277.5l100 569h119l-100 -569q-20 -115 46 -195t180 -80t208 80t115 195z" glyph-name="ugrave" horiz-adv-x="1095" unicode="ù"/><glyph d="M965 1382l-228 -292h-88l168 292h148zM897 942h119l-168 -942h-117l19 109q-127 -129 -297 -129q-162 0 -257.5 115.5t-66.5 277.5l100 569h119l-100 -569q-20 -115 46 -195t180 -80t208 80t115 195z" glyph-name="uacute" horiz-adv-x="1095" unicode="ú"/><glyph d="M913 1090h-88l-120 231l-203 -231h-88l227 292h147zM897 942h119l-168 -942h-117l19 109q-127 -129 -297 -129q-162 0 -257.5 115.5t-66.5 277.5l100 569h119l-100 -569q-20 -115 46 -195t180 -80t208 80t115 195z" glyph-name="ucircumflex" horiz-adv-x="1095" unicode="û"/><glyph d="M655 1294l-20 -116h-119l23 116h116zM862 1294l-22 -116h-117l20 116h119zM1016 942l-168 -942h-117l19 109q-127 -129 -297 -129q-162 0 -257.5 115.5t-66.5 277.5l100 569h119l-100 -569q-20 -115 46 -195t180 -80t208 80t115 195l100 569h119z" glyph-name="udieresis" horiz-adv-x="1095" unicode="ü"/><glyph d="M915 942h127l-788 -1354h-127l240 412l-217 942h126l183 -786zM938 1382l-227 -292h-88l170 292h145z" glyph-name="yacute" horiz-adv-x="1026" unicode="ý"/><glyph d="M743 961q203 0 322 -143.5t83 -346.5t-205 -347t-372 -144q-119 0 -205.5 52t-134.5 144l-102 -588h-119l322 1825h119l-115 -647q80 92 185 143.5t222 51.5zM592 98q154 0 283 109.5t155.5 263.5t-63.5 263.5t-244 109.5q-152 0 -279 -105.5t-157 -257.5l-4 -20 q-23 -152 67 -257.5t242 -105.5z" glyph-name="thorn" horiz-adv-x="1261" unicode="þ"/><glyph d="M629 1294l-21 -116h-116l20 116h117zM836 1294l-21 -116h-119l21 116h119zM915 942h127l-788 -1354h-127l240 412l-217 942h126l183 -786z" glyph-name="ydieresis" horiz-adv-x="1026" unicode="ÿ"/><glyph d="M248 942h117l-166 -942h-119z" glyph-name="dotlessi" horiz-adv-x="446" unicode="ı"/><glyph d="M285 109h647l-19 -109h-766l105 586l-207 -115l21 117l206 114l125 711h119l-113 -637l445 248l-21 -119l-444 -248z" glyph-name="Lslash" horiz-adv-x="1085" unicode="Ł"/><glyph d="M653 942l-20 -119l-207 -114l-125 -709h-117l113 637l-207 -115l21 117l206 117l117 657h117l-102 -586z" glyph-name="lslash" horiz-adv-x="638" unicode="ł"/><glyph d="M2494 1294h-823l-94 -528h707l-21 -119h-707l-92 -530h824l-21 -117h-942l55 309q-127 -152 -303 -240.5t-364 -88.5q-197 0 -347.5 97t-218 265t-32.5 364.5t161.5 363.5t311 264.5t381.5 97.5q188 0 333.5 -89.5t217.5 -240.5l55 311h940zM733 98q252 0 462 178.5 t255 430.5q29 166 -27.5 305t-182.5 221t-292 82q-252 0 -462 -178.5t-253 -429.5q-29 -166 27.5 -306.5t182.5 -221.5t290 -81z" glyph-name="OE" horiz-adv-x="2486" unicode="Œ"/><glyph d="M1957 470q-5 -30 -13 -58h-857q-2 -133 87.5 -223.5t226.5 -90.5q96 0 185 45t155 121l86 -65q-86 -100 -204 -159.5t-243 -59.5q-137 0 -240.5 70.5t-146.5 187.5q-84 -117 -211 -186.5t-264 -69.5q-203 0 -321.5 144t-82.5 347t204.5 346.5t371.5 143.5 q139 0 241.5 -70t145.5 -188q84 117 211 186.5t264 69.5q188 0 305 -124t107 -307q-2 -30 -7 -60zM539 100q152 0 278.5 104.5t157.5 256.5q0 4 2 10q0 6 2 12q23 152 -67.5 257.5t-241.5 105.5q-154 0 -283 -109.5t-155.5 -264.5t63.5 -263.5t244 -108.5zM1110 530h735 q2 133 -86 223.5t-226 90.5t-258 -90.5t-165 -223.5z" glyph-name="oe" horiz-adv-x="2062" unicode="œ"/><glyph d="M936 371q-16 -125 -107 -224q-76 -82 -184 -127q-98 -41 -203 -40q-201 0 -317 122q-55 57 -78 136q-10 29 -12 59l117 45q6 -88 65 -152q88 -92 246 -92q80 0 153 31q78 31 132 88q59 66 71 149t-28 146q-27 43 -74 77t-84 51t-107.5 45t-93.5 38q-162 70 -205 178 q-47 113 17 248q35 76 95 137.5t134 95.5q119 55 246 49t217 -73q94 -68 113 -184l-117 -46q-2 27 -12 50q-20 51 -64 82q-74 53 -176 55t-193 -49q-86 -51 -133 -140.5t-16 -167.5q12 -29 33.5 -52t56.5 -42.5t57.5 -30t68.5 -26.5t60 -21q205 -82 281 -198q59 -94 41 -217 zM504 1853h88l121 -231l202 231h89l-228 -292h-147z" glyph-name="Scaron" horiz-adv-x="1114" unicode="Š"/><glyph d="M768 381q18 -55 8 -117q-12 -66 -55 -125t-109 -100q-98 -57 -222 -59.5t-208 45.5q-45 23 -82 55q-8 6 -34.5 39t-24.5 35l111 63q45 -76 141 -102q68 -18 139 -15q78 6 131 37q68 41 88.5 107.5t-18.5 120.5q-25 33 -64 45t-99 15t-85 7q-78 16 -129 60q-41 35 -57 83 q-20 53 -9 117q8 57 43 109q31 47 78 84q100 76 240 76q174 0 268 -101q23 -25 39 -53q-8 -4 -28.5 -16.5t-81.5 -49.5q-33 59 -107 86q-41 14 -92 15.5t-102.5 -11t-90.5 -48t-49 -91.5q-23 -129 187 -149q106 -10 176.5 -45t97.5 -117zM365 1382h90l120 -231l203 231h88 l-229 -292h-148z" glyph-name="scaron" horiz-adv-x="927" unicode="š"/><glyph d="M897 942h119l-168 -942h-117l19 109q-127 -129 -297 -129q-162 0 -257.5 115.5t-66.5 277.5l100 569h119l-100 -569q-20 -115 46 -195t180 -80t208 80t115 195zM926 1294l-21 -116h-481l20 116h482z" glyph-name="umacron" horiz-adv-x="1095" unicode="ū"/><glyph d="M897 942h119l-168 -942h-117l19 109q-127 -129 -297 -129q-162 0 -257.5 115.5t-66.5 277.5l100 569h119l-100 -569q-20 -115 46 -195t180 -80t208 80t115 195zM881 1294q-14 -80 -82 -138t-149 -58t-128 58t-33 138h117q-6 -33 13.5 -55t51 -22t59.5 22.5t34 54.5h117z " glyph-name="ubreve" horiz-adv-x="1095" unicode="ŭ"/><glyph d="M1104 1413h137l-606 -721l-123 -692h-117l121 692l-352 721h137l295 -604zM705 1677l-21 -116h-117l21 116h117zM911 1677l-20 -116h-119l21 116h118z" glyph-name="Ydieresis" horiz-adv-x="1155" unicode="Ÿ"/><glyph d="M154 117h854l-21 -117h-1040l10 59l1042 1235h-766l21 119h952l-10 -59zM543 1853h88l121 -231l202 231h90l-229 -292h-147z" glyph-name="Zcaron" horiz-adv-x="1183" unicode="Ž"/><glyph d="M399 1382h88l121 -231l203 231h88l-229 -292h-146zM209 109h616l-18 -109h-805l10 59l717 775h-541l21 108h725l-10 -59z" glyph-name="zcaron" horiz-adv-x="972" unicode="ž"/><glyph d="M549 1382l125 -292h-88l-121 231l-203 -231h-88l229 292h146z" glyph-name="circumflex" horiz-adv-x="712" unicode="ˆ"/><glyph d="M625 1382h88l-228 -292h-147l-125 292h88l121 -231z" glyph-name="caron" horiz-adv-x="688" unicode="ˇ"/><glyph d="M439 1413q77 0 122 -55t32 -132t-77.5 -131.5t-141.5 -54.5t-122 54.5t-32 131.5t77.5 132t141.5 55zM505 1227q7 41 -16.5 69.5t-64.5 28.5t-75 -28.5t-41 -69.5t16.5 -70t64.5 -29t75 29t41 70z" glyph-name="ring" horiz-adv-x="628" unicode="˚"/><glyph d="M713 1364l88 -12q-29 -104 -60 -144q-66 -80 -161 -71q-45 4 -103 39q-10 4 -31.5 18t-33.5 20q-51 29 -95 0q-8 -6 -15 -14t-12 -15t-10.5 -20.5t-7.5 -18.5t-6 -22.5t-4 -19.5l-90 12q29 102 61 144q63 80 160 71q43 -6 92 -33q12 -6 38 -22t42 -25q51 -25 90 0 q8 6 16.5 15.5t12.5 15.5t9 20.5t7 19.5t6.5 21.5t6.5 20.5z" glyph-name="tilde" horiz-adv-x="780" unicode="˜"/><glyph d="M891 530l-21 -118h-843l20 118h844z" glyph-name="endash" horiz-adv-x="1001" unicode="–"/><glyph d="M1618 530l-23 -118h-1568l20 118h1571z" glyph-name="emdash" horiz-adv-x="1728" unicode="—"/><glyph d="M518 1413l-221 -412h-117l250 412h88z" glyph-name="quoteleft" horiz-adv-x="520" unicode="‘"/><glyph d="M182 1001l219 412h119l-250 -412h-88z" glyph-name="quoteright" horiz-adv-x="520" unicode="’"/><glyph d="M-227 -295l219 412h119l-250 -412h-88z" glyph-name="quotesinglbase" horiz-adv-x="264" unicode="‚"/><glyph d="M786 1413l-219 -412h-116l247 412h88zM494 1413l-222 -412h-116l250 412h88z" glyph-name="quotedblleft" horiz-adv-x="761" unicode="“"/><glyph d="M158 1001l219 412h119l-250 -412h-88zM453 1001l219 412h116l-247 -412h-88z" glyph-name="quotedblright" horiz-adv-x="759" unicode="”"/><glyph d="M-227 -295l219 412h119l-250 -412h-88zM68 -295l219 412h116l-247 -412h-88z" glyph-name="quotedblbase" horiz-adv-x="559" unicode="„"/><glyph d="M1085 942l-20 -119h-412l-217 -1235h-119l220 1235h-414l22 119h412l82 471h119l-84 -471h411z" glyph-name="dagger" horiz-adv-x="1148" unicode="†"/><glyph d="M1100 823h-412l-74 -411h412l-20 -117h-412l-125 -707h-117l125 707h-414l23 117h412l71 411h-411l20 119h412l84 471h117l-82 -471h411z" glyph-name="daggerdbl" horiz-adv-x="1216" unicode="‡"/><glyph d="M188 530l-20 -118h-119l21 118h118z" glyph-name="bullet" horiz-adv-x="319" unicode="•"/><glyph d="M70 117l-23 -117h-117l21 117h119zM334 117l-21 -117h-118l20 117h119zM598 117l-20 -117h-117l20 117h117z" glyph-name="ellipsis" horiz-adv-x="757" unicode="…"/><glyph d="M590 795l-21 -119l-401 -205l330 -207l-23 -117l-424 265l23 116z" glyph-name="guilsinglleft" horiz-adv-x="696" unicode="‹"/><glyph d="M117 676l20 119l426 -267l-22 -116l-516 -265l20 117l401 207z" glyph-name="guilsinglright" horiz-adv-x="698" unicode="›"/><glyph d="M33 0h-60l897 1413h58z" glyph-name="fraction" horiz-adv-x="899" unicode="⁄"/><glyph d="M506 1432q119 0 162 -104.5t14 -268.5t-108.5 -268.5t-198.5 -104.5t-162 104.5t-14.5 268.5t108.5 268.5t199 104.5zM385 748q92 0 151.5 86t84 225t-4 226t-122 87t-152.5 -87t-84 -226t5 -225t122 -86z" glyph-name="uni2070" horiz-adv-x="755" unicode="⁰"/><glyph d="M559 942h121l-10 -59h-121l-33 -176h-57l30 176h-354l6 28l471 502h29zM500 942l59 336l-317 -336h258z" glyph-name="uni2074" horiz-adv-x="755" unicode="⁴"/><glyph d="M449 1184q102 0 162.5 -73t42 -176.5t-103.5 -176t-190 -72.5q-82 0 -138 48t-66 124l59 25q6 -59 49 -98.5t107 -39.5q80 0 144.5 55.5t78.5 134.5t-32 134t-124 55q-66 0 -123 -39l-69 9l69 319h367l-10 -59h-312l-43 -205q64 35 132 35z" glyph-name="uni2075" horiz-adv-x="741" unicode="⁵"/><glyph d="M461 1184q61 2 117 -33q51 -33 74.5 -91.5t13.5 -123.5q-18 -104 -104.5 -177t-189 -73t-162.5 72.5t-42 177.5q4 18 10 39q18 59 64 108q129 139 299 330h73l-217 -242q29 13 64 13zM383 745q78 0 143.5 55.5t78.5 134.5t-32 134t-123.5 55t-143 -55t-79 -134 t31.5 -134.5t124 -55.5z" glyph-name="uni2076" horiz-adv-x="751" unicode="⁶"/><glyph d="M244 1413h411l-6 -31l-418 -675h-67l399 647h-330z" glyph-name="uni2077" horiz-adv-x="638" unicode="⁷"/><glyph d="M549 1106q53 -29 78.5 -82t15.5 -117q-16 -90 -97 -155.5t-179.5 -65.5t-155.5 65.5t-43 155.5q12 63 56 116.5t108 82.5q-63 53 -47 145q12 74 74.5 127.5t138 53.5t120 -53.5t29.5 -127.5q-16 -92 -98 -145zM486.5 1372q-50.5 0 -91.5 -36t-50 -86t20.5 -85t80 -35 t91.5 35t50 85t-20.5 86t-80 36zM377 748q74 0 133 47t71.5 113.5t-30.5 113.5t-117 47t-133 -47t-71.5 -113.5t30.5 -113.5t117 -47z" glyph-name="uni2078" horiz-adv-x="739" unicode="⁸"/><glyph d="M414 934q-61 0 -117 33q-51 33 -74.5 91t-13.5 126q18 102 104 175t188.5 73t163 -73t42.5 -175q-4 -20 -11 -41q-18 -59 -63 -107q-123 -133 -299 -329h-74l217 241q-28 -12 -63 -14zM491.5 1372q-77.5 0 -143 -55t-79 -133t31.5 -133.5t124 -55.5t143.5 55.5t79 133.5 t-32 133t-124 55z" glyph-name="uni2079" horiz-adv-x="743" unicode="⁹"/><glyph d="M368.5 725q118.5 0 161.5 -104.5t14.5 -268.5t-108.5 -268t-198.5 -104t-161.5 104t-14.5 268t108.5 268.5t198.5 104.5zM248 41q92 0 152.5 86t85 226.5t-5 226.5t-122 86t-152 -86t-85 -226.5t4.5 -226.5t122 -86z" glyph-name="uni2080" horiz-adv-x="731" unicode="₀"/><glyph d="M106 707h177l-125 -707h-60l115 647h-117z" glyph-name="uni2081" horiz-adv-x="415" unicode="₁"/><glyph d="M442 59l-10 -59h-448l6 31q244 221 315 286q6 6 36 33l40 36t31.5 33.5t30 41t14.5 41t4 47.5q-6 53 -44 86t-91 33q-57 0 -109.5 -36t-73.5 -93l-53 24q16 35 41 64q55 66 132 89t145.5 -2.5t99.5 -90.5q37 -80 -2 -164q-8 -23 -25 -45q-25 -33 -75 -82l-295 -273h331z " glyph-name="uni2082" horiz-adv-x="677" unicode="₂"/><glyph d="M338 475q86 -14 134 -83.5t32 -162.5q-18 -102 -103.5 -175.5t-189.5 -73.5q-82 0 -138.5 48t-66.5 124l60 22q6 -57 50 -95t107 -38q78 0 142.5 55.5t79 133t-31.5 133t-124 55.5q-16 0 -35 -4q-23 -2 -43 -11l8 46l209 198h-272l10 60h387l-4 -31z" glyph-name="uni2083" horiz-adv-x="706" unicode="₃"/><glyph d="M426 236h123l-10 -60h-123l-31 -176h-59l30 176h-352l4 29l471 502h29zM367 236l59 335l-315 -335h256z" glyph-name="uni2084" horiz-adv-x="735" unicode="₄"/><glyph d="M309 477q104 0 163.5 -72.5t41.5 -175t-103 -176t-190 -73.5q-82 0 -138 49t-67 125l60 22q6 -59 49 -97t108 -38q78 0 142.5 55.5t79 133t-31.5 133t-124 55.5q-66 0 -123 -39l-70 10l70 318h369l-13 -60h-309l-45 -203q63 33 131 33z" glyph-name="uni2085" horiz-adv-x="714" unicode="₅"/><glyph d="M319 477q63 2 117 -31q51 -33 76 -92t12 -125q-18 -102 -104 -175.5t-188.5 -73.5t-163 73.5t-41.5 175.5q4 20 10 39q20 59 63 109q123 133 299 330h74l-217 -242q28 12 63 12zM241.5 41q77.5 0 143.5 55.5t79 133t-32 133t-124 55.5t-143.5 -55.5t-78.5 -133t32 -133 t123.5 -55.5z" glyph-name="uni2086" horiz-adv-x="720" unicode="₆"/><glyph d="M98 707h412l-4 -31l-418 -676h-70l400 647h-330z" glyph-name="uni2087" horiz-adv-x="604" unicode="₇"/><glyph d="M410 399q53 -29 78.5 -81t15.5 -115q-16 -92 -97 -157.5t-179.5 -65.5t-156 65.5t-40.5 157.5q10 63 55 115.5t107 80.5q-63 53 -48 146q14 76 77 128t137.5 52t118.5 -52t30 -128q-16 -93 -98 -146zM349 666q-50 0 -92 -36t-51 -86t20.5 -85t79.5 -35t91 35t50.5 85 t-19.5 86t-79 36zM238.5 41q72.5 0 133 47t72 113.5t-31.5 113.5t-117 47t-133.5 -47t-71.5 -113.5t32 -113.5t116.5 -47z" glyph-name="uni2088" horiz-adv-x="710" unicode="₈"/><glyph d="M276 229q-63 -2 -116 31q-51 33 -76 91.5t-12 125.5q18 102 104 175t188.5 73t163 -72.5t41.5 -175.5q-4 -20 -10 -39q-20 -59 -63 -108q-123 -133 -299 -330h-74l217 242q-29 -13 -64 -13zM354 666q-78 0 -143.5 -55.5t-78.5 -133.5t32 -133t124 -55t143.5 55t78.5 133 t-32 133.5t-124 55.5z" glyph-name="uni2089" horiz-adv-x="722" unicode="₉"/><glyph d="M1481 369l86 -66q-125 -147 -300 -234t-362 -87q-236 0 -399.5 136t-200.5 353h-215l21 117h186q0 59 11 118.5t30 116.5h-186l22 119h215q113 217 325 353.5t447 136.5q186 0 329.5 -86t217.5 -236l-109 -66q-61 125 -182 198t-276 73q-186 0 -356.5 -103.5 t-270.5 -269.5h600l-20 -119h-635q-23 -57 -33 -116.5t-10 -118.5h637l-21 -117h-600q41 -166 174 -269.5t322 -103.5q156 0 302.5 73t250.5 198z" glyph-name="Euro" horiz-adv-x="1771" unicode="€"/><glyph d="M348 707h-59l114 647h-192l10 59h443l-11 -59h-192zM1339 1413h60l-125 -706h-60l105 591l-315 -460h-60l-153 460l-105 -591h-59l125 704h59l176 -500l352 500v2z" glyph-name="trademark" horiz-adv-x="1421" unicode="™"/><glyph d="M203 0h-60l897 1413h58zM246 1413h176l-125 -706h-59l114 647h-116zM997 475q88 -14 136.5 -83.5t31.5 -162.5q-18 -102 -104 -175.5t-189 -73.5q-82 0 -138 48t-68 124l59 22q8 -57 51 -95t107 -38q78 0 143.5 55.5t78.5 133t-32 133t-123 55.5q-18 0 -37 -4 q-20 -2 -41 -11l9 46l206 198h-272l10 60h389l-6 -31z" glyph-name="onethird" horiz-adv-x="1380" unicode="⅓"/><glyph d="M342 0h-59l897 1413h57zM1137 475q88 -14 136 -83.5t32 -162.5q-18 -102 -104.5 -175.5t-188.5 -73.5q-82 0 -138.5 48t-68.5 124l59 22q8 -57 51 -95t107 -38q78 0 143.5 55.5t78.5 133t-32 133t-122 55.5q-18 0 -37 -4q-20 -2 -41 -11l8 46l207 198h-273l11 60h389 l-6 -31zM250 766h334l-11 -59h-448l4 28q244 223 315 289q6 6 36 32.5t40 36t32.5 34t30 41t14.5 41t5 46.5q-6 51 -44 85t-91 34q-59 0 -110.5 -37t-73.5 -92l-52 23q14 35 41 65q53 66 131 89.5t146.5 -2t99.5 -91.5q35 -80 -2 -164q-10 -23 -26 -45q-23 -33 -74 -82z" glyph-name="twothirds" horiz-adv-x="1519" unicode="⅔"/><glyph d="M487 250l-98 -84l-319 389l456 387l68 -84l-289 -246h1188l-20 -116h-1188z" glyph-name="arrowleft" horiz-adv-x="1609" unicode="←"/><glyph d="M934 1024l-98 -82l-203 246l-209 -1188h-117l209 1188l-289 -246l-69 82l456 389z" glyph-name="arrowup" horiz-adv-x="978" unicode="↑"/><glyph d="M1028 166l-67 84l288 246h-1188l21 116h1188l-203 246l98 84l320 -387z" glyph-name="arrowright" horiz-adv-x="1607" unicode="→"/><glyph d="M750 471l67 -84l-455 -387l-319 387l98 84l203 -246l209 1188h117l-209 -1188z" glyph-name="arrowdown" horiz-adv-x="974" unicode="↓"/><glyph d="M193 393h-117l96 547h549l-23 -117h-346l692 -839l-98 -84l-692 839z" glyph-name="uni2196" horiz-adv-x="1230" unicode="↖"/><glyph d="M1047 393h-117l61 348l-989 -839l-68 82l988 839h-347l21 119h547z" glyph-name="uni2197" horiz-adv-x="1230" unicode="↗"/><glyph d="M981 549h117l-97 -549h-546l20 119l346 -2l-690 839l98 84l691 -839z" glyph-name="uni2198" unicode="↘"/><glyph d="M102 547h119l-61 -346l987 839l67 -84l-987 -839h348l-20 -117h-549z" glyph-name="uni2199" horiz-adv-x="1255" unicode="↙"/><glyph d="M846 1294h-283l-63 -352h284l-18 -108h-285l-147 -834h-117l145 834h-235l20 108h236l82 471l403 -2z" glyph-name="uniF000" horiz-adv-x="763" unicode=""/><glyph d="M1061 942h117l-238 -1354h-883l19 109h766l84 479q-78 -92 -184.5 -144t-223.5 -52q-203 0 -321.5 144t-82.5 347t204.5 346.5t373.5 143.5q117 0 204 -52.5t134 -142.5zM539.5 98q154.5 0 282.5 108.5t156 263.5t-62.5 264.5t-245 109.5t-282.5 -109.5t-155.5 -264.5 t62.5 -263.5t244.5 -108.5z" glyph-name="uniF001" unicode=""/><glyph d="M434 1294l-20 -116h-117l20 116h117zM371 942l-238 -1354h-393l20 109h275l219 1245h117z" glyph-name="uniF002" horiz-adv-x="454" unicode=""/><glyph d="M954 942l-18 -108h-590l-127 -725h588l-19 -109h-706l166 942h706z" glyph-name="uniF003" horiz-adv-x="962" unicode=""/><glyph d="M866 0h-118l147 834h-549l-147 -834h-119l166 942h786z" glyph-name="uniF004" horiz-adv-x="1112" unicode=""/><glyph d="M768 942l-18 -108h-404l-147 -834h-117l166 942h520z" glyph-name="uniF005" horiz-adv-x="747" unicode=""/><glyph d="M295 117h235l-20 -117h-354l147 834h-168l21 108h166l63 352h117l-62 -352h236l-21 -108h-235z" glyph-name="uniF006" horiz-adv-x="681" unicode=""/><glyph d="M913 942h119l-166 -942h-786l166 942h119l-148 -833h549z" glyph-name="uniF007" horiz-adv-x="1112" unicode=""/><glyph d="M367 942h667l-166 -942h-118l147 834h-549l-147 -834h-119l250 1413h117z" glyph-name="uniF008" horiz-adv-x="1114" unicode=""/><glyph d="M104 -432h-116l407 2316h119z" glyph-name="uniF009" horiz-adv-x="495" unicode=""/></font>
</defs>
</svg>
